<svg version="1.1" id="Layer_1" xmlns="http://www.w3.org/2000/svg" xmlns:xlink="http://www.w3.org/1999/xlink" x="0px" y="0px"
	 width="100%" viewBox="0 0 500 500" enable-background="new 0 0 500 500" xml:space="preserve">
<path fill="#003366" opacity="1.000000" stroke="none" 
	d="
M221.000000,501.000000 
	C147.333344,501.000000 74.166702,501.000000 1.000039,501.000000 
	C1.000026,334.333405 1.000026,167.666779 1.000013,1.000129 
	C167.666565,1.000086 334.333130,1.000086 500.999756,1.000043 
	C500.999847,167.666534 500.999847,334.333069 500.999939,500.999817 
	C407.833344,501.000000 314.666656,501.000000 221.000000,501.000000 
M248.875900,341.184387 
	C248.305542,340.604767 247.735184,340.025177 247.164810,339.445587 
	C246.817963,340.446106 246.471115,341.446655 246.411499,343.049591 
	C247.275574,344.683716 248.139648,346.317841 248.468903,346.940521 
	C248.542099,346.654114 248.884399,345.314880 249.395355,343.315796 
	C253.545425,343.315796 257.608521,343.315796 261.671631,343.315796 
	C261.655792,342.784271 261.639984,342.252777 261.624146,341.721252 
	C257.417480,341.721252 253.210800,341.721252 248.875900,341.184387 
M307.025055,348.966736 
	C307.025055,348.966736 306.959900,348.934784 306.473541,349.554321 
	C311.295197,352.413666 315.371582,351.572693 317.723541,347.233398 
	C320.327179,342.429779 318.389893,337.385010 312.374664,334.502655 
	C310.002563,335.334015 307.630463,336.165375 304.922119,336.186523 
	C304.786102,333.894318 304.650116,331.602112 304.514099,329.309906 
	C304.166595,329.343903 303.819122,329.377930 303.471619,329.411957 
	C303.471619,336.493103 303.471619,343.574280 303.471619,351.084991 
	C304.902740,350.264496 305.989136,349.641663 307.025055,348.966736 
M219.227249,349.853882 
	C212.236862,349.361633 208.531509,343.944275 212.384354,339.269165 
	C213.942261,337.378754 217.415344,337.066650 220.180710,336.693878 
	C221.224655,338.057098 222.268600,339.420349 223.312561,340.783569 
	C223.810852,340.230316 224.309143,339.677094 224.807434,339.123871 
	C223.217117,338.088165 221.626785,337.052460 219.916061,335.324188 
	C218.484161,335.126587 216.546631,334.246338 215.716492,334.861176 
	C213.358200,336.607941 210.134048,338.737579 209.719009,341.142487 
	C209.255035,343.830750 210.855972,347.576233 212.812302,349.714111 
	C213.954758,350.962616 217.549591,349.967010 220.729736,349.926270 
	C222.042419,348.884430 223.355103,347.842590 224.667786,346.800720 
	C224.180893,346.383179 223.693985,345.965637 223.207092,345.548096 
	C222.144409,347.018372 221.081726,348.488678 219.227249,349.853882 
M241.254120,156.484482 
	C236.480652,157.003143 233.062958,159.799957 231.290283,163.896774 
	C228.798569,169.655334 227.265884,175.823456 224.901337,181.645142 
	C223.940399,184.011002 222.272461,186.473618 220.243500,187.960800 
	C204.565186,199.452805 188.446320,210.360199 173.027420,222.183563 
	C163.663589,229.363831 162.509247,234.872742 167.640137,245.317490 
	C177.486267,265.360931 190.890610,283.060760 207.146622,298.245636 
	C226.322556,316.158051 250.284149,318.023132 274.972321,315.955811 
	C276.236877,315.849945 277.489197,315.140106 278.669159,314.554291 
	C288.401642,309.722412 293.140808,301.099701 295.814423,291.175568 
	C296.849579,287.333374 298.350342,284.336914 301.530731,281.729614 
	C311.766357,273.338379 319.273315,262.916199 323.697571,250.324509 
	C331.089020,229.288086 334.263977,207.446899 336.791870,185.417679 
	C337.441803,179.754135 335.663574,176.249146 330.923340,174.290909 
	C323.263702,171.126663 315.569824,167.823029 307.592804,165.692383 
	C286.171814,159.970901 264.424438,156.037338 241.254120,156.484482 
M264.807251,339.521545 
	C264.807251,343.321960 264.807251,347.122406 264.807251,350.922821 
	C265.336639,350.936554 265.866028,350.950287 266.395416,350.963989 
	C266.584412,347.646271 266.773407,344.328522 266.966461,340.939117 
	C271.474243,340.939117 275.541748,340.939117 279.795685,340.939117 
	C280.048828,344.428558 280.283905,347.669006 280.518982,350.909454 
	C280.842621,350.869293 281.166229,350.829132 281.489868,350.788971 
	C281.489868,343.594696 281.489868,336.400391 281.489868,329.206085 
	C281.126404,329.193848 280.762939,329.181580 280.399475,329.169342 
	C280.203308,332.329620 280.007111,335.489899 279.809448,338.674133 
	C275.335571,338.674133 271.241364,338.674133 266.892120,338.674133 
	C266.732178,335.323212 266.581848,332.173401 266.431519,329.023590 
	C265.890045,329.021545 265.348541,329.019501 264.807068,329.017426 
	C264.807068,332.200317 264.807068,335.383209 264.807251,339.521545 
M201.799362,337.069153 
	C202.309921,336.346252 202.820480,335.623322 203.331039,334.900421 
	C203.753616,334.986542 204.176193,335.072693 204.598770,335.158813 
	C204.598770,340.371460 204.598770,345.584137 204.598770,350.796783 
	C205.000961,350.777985 205.403137,350.759216 205.805328,350.740417 
	C205.805328,343.531921 205.805328,336.323395 205.805328,328.430328 
	C199.698242,333.633453 199.000381,340.614563 196.561096,347.038483 
	C195.635864,346.027893 194.940567,344.665833 195.332199,344.179993 
	C197.171722,341.898071 199.309875,339.856934 201.799362,337.069153 
M186.292770,346.109131 
	C186.292953,343.116608 186.238739,340.122803 186.309494,337.131958 
	C186.373093,334.443115 186.573853,331.757568 186.714111,329.070557 
	C186.117386,329.068817 185.520645,329.067078 184.923920,329.065338 
	C184.923920,336.333649 184.923920,343.601929 184.923920,350.870239 
	C185.281433,350.896729 185.638931,350.923218 185.996445,350.949707 
	C186.095184,349.632568 186.193924,348.315460 186.292770,346.109131 
M299.947296,343.219482 
	C299.947296,340.498566 299.947296,337.777618 299.947296,335.056702 
	C299.316925,335.028748 298.686523,335.000793 298.056152,334.972839 
	C297.674164,340.761658 299.173248,347.111938 293.184967,351.795715 
	C291.450806,350.742188 289.520844,349.569733 287.590851,348.397247 
	C288.727570,349.252960 289.866516,350.227264 290.916199,350.139099 
	C293.759857,349.900177 296.565582,349.210205 299.947357,348.597443 
	C299.947357,347.999847 299.947357,346.042053 299.947296,343.219482 
M242.818573,335.126099 
	C241.599167,340.424744 242.062775,345.629822 243.608246,350.768158 
	C243.608246,345.523712 243.608246,340.279266 242.818573,335.126099 
M257.396942,336.680328 
	C257.547211,336.623871 257.722961,336.598541 257.840546,336.502228 
	C257.956818,336.406891 258.114471,336.152283 258.083405,336.116791 
	C256.002380,333.739288 255.084503,333.674805 252.563675,335.869629 
	C254.092773,336.158600 255.485260,336.421722 257.396942,336.680328 
M249.864334,336.780121 
	C250.050125,336.920258 250.235916,337.060394 250.421722,337.200531 
	C250.500900,336.940094 250.580078,336.679626 250.659256,336.419189 
	C250.425217,336.446075 250.191162,336.472961 249.864334,336.780121 
M252.156677,349.788696 
	C252.383240,349.865112 252.609787,349.941559 252.836334,350.018036 
	C252.602356,350.066254 252.368378,350.114471 252.156677,349.788696 
z"/>
<path fill="#A5F65C" opacity="1.000000" stroke="none" 
	d="
M241.681915,156.412628 
	C264.424438,156.037338 286.171814,159.970901 307.592804,165.692383 
	C315.569824,167.823029 323.263702,171.126663 330.923340,174.290909 
	C335.663574,176.249146 337.441803,179.754135 336.791870,185.417679 
	C334.263977,207.446899 331.089020,229.288086 323.697571,250.324509 
	C319.273315,262.916199 311.766357,273.338379 301.530731,281.729614 
	C298.350342,284.336914 296.849579,287.333374 295.814423,291.175568 
	C293.140808,301.099701 288.401642,309.722412 278.669159,314.554291 
	C277.489197,315.140106 276.236877,315.849945 274.972321,315.955811 
	C250.284149,318.023132 226.322556,316.158051 207.146622,298.245636 
	C190.890610,283.060760 177.486267,265.360931 167.640137,245.317490 
	C162.509247,234.872742 163.663589,229.363831 173.027420,222.183563 
	C188.446320,210.360199 204.565186,199.452805 220.243500,187.960800 
	C222.272461,186.473618 223.940399,184.011002 224.901337,181.645142 
	C227.265884,175.823456 228.798569,169.655334 231.290283,163.896774 
	C233.062958,159.799957 236.480652,157.003143 241.681915,156.412628 
M281.655884,227.899231 
	C272.370026,214.347427 263.260071,200.670197 253.722733,187.297745 
	C249.087570,180.798706 248.723083,181.049820 241.001434,183.956848 
	C239.606049,184.482178 238.224991,185.053040 236.866104,185.666626 
	C216.091919,195.046387 197.523483,207.883408 180.150055,222.456528 
	C167.816986,232.801712 167.131516,235.917816 175.892105,249.772430 
	C183.072922,261.128662 191.335632,271.822906 199.441360,282.567230 
	C213.419800,301.095978 232.833542,310.090973 255.316772,312.735321 
	C275.758453,315.139526 288.557404,305.487183 291.833862,286.061432 
	C295.257904,265.760559 293.243011,246.360611 281.655884,227.899231 
M321.977905,238.328949 
	C325.033508,220.993668 327.944946,203.630905 331.238739,186.341003 
	C332.144897,181.584457 330.465698,178.959457 326.320587,177.598755 
	C316.390228,174.338943 306.583099,170.367569 296.398132,168.298737 
	C281.276367,165.227112 265.894562,163.369293 250.572342,161.390671 
	C245.924881,160.790543 240.180893,159.884857 237.225159,164.594376 
	C234.066040,169.627945 232.280655,175.523682 229.435333,182.108261 
	C236.276489,179.918732 241.420639,178.301651 246.544220,176.621826 
	C249.793930,175.556381 252.235504,176.392761 254.431274,179.090088 
	C267.471161,195.108307 279.666107,211.692780 289.178314,230.105347 
	C295.343079,242.038315 299.872009,254.415634 298.963776,268.162933 
	C298.797546,270.678894 298.335297,273.175262 297.814575,277.182373 
	C300.186035,275.364319 301.468750,274.498840 302.617401,273.481934 
	C313.020966,264.271210 317.956482,251.995316 321.977905,238.328949 
z"/>
<path fill="#023566" opacity="1.000000" stroke="none" 
	d="
M305.258331,336.996765 
	C307.630463,336.165375 310.002563,335.334015 312.624084,335.039795 
	C315.711334,338.848694 318.764496,342.110687 315.709656,346.816772 
	C313.506622,350.210510 310.328156,350.088318 306.959900,348.934784 
	C306.959900,348.934784 307.025055,348.966736 306.931000,348.616211 
	C303.011169,344.971588 305.641479,340.773102 305.258331,336.996765 
z"/>
<path fill="#C3CFDB" opacity="1.000000" stroke="none" 
	d="
M264.807159,339.043823 
	C264.807068,335.383209 264.807068,332.200317 264.807068,329.017426 
	C265.348541,329.019501 265.890045,329.021545 266.431519,329.023590 
	C266.581848,332.173401 266.732178,335.323212 266.892120,338.674133 
	C271.241364,338.674133 275.335571,338.674133 279.809448,338.674133 
	C280.007111,335.489899 280.203308,332.329620 280.399475,329.169342 
	C280.762939,329.181580 281.126404,329.193848 281.489868,329.206085 
	C281.489868,336.400391 281.489868,343.594696 281.489868,350.788971 
	C281.166229,350.829132 280.842621,350.869293 280.518982,350.909454 
	C280.283905,347.669006 280.048828,344.428558 279.795685,340.939117 
	C275.541748,340.939117 271.474243,340.939117 266.966461,340.939117 
	C266.773407,344.328522 266.584412,347.646271 266.395416,350.963989 
	C265.866028,350.950287 265.336639,350.936554 264.807251,350.922821 
	C264.807251,347.122406 264.807251,343.321960 264.807159,339.043823 
z"/>
<path fill="#C3CFDB" opacity="1.000000" stroke="none" 
	d="
M201.570374,337.399506 
	C199.309875,339.856934 197.171722,341.898071 195.332199,344.179993 
	C194.940567,344.665833 195.635864,346.027893 196.561096,347.038483 
	C199.000381,340.614563 199.698242,333.633453 205.805328,328.430328 
	C205.805328,336.323395 205.805328,343.531921 205.805328,350.740417 
	C205.403137,350.759216 205.000961,350.777985 204.598770,350.796783 
	C204.598770,345.584137 204.598770,340.371460 204.598770,335.158813 
	C204.176193,335.072693 203.753616,334.986542 203.331039,334.900421 
	C202.820480,335.623322 202.309921,336.346252 201.570374,337.399506 
z"/>
<path fill="#C3CFDB" opacity="1.000000" stroke="none" 
	d="
M186.292725,346.553741 
	C186.193924,348.315460 186.095184,349.632568 185.996445,350.949707 
	C185.638931,350.923218 185.281433,350.896729 184.923920,350.870239 
	C184.923920,343.601929 184.923920,336.333649 184.923920,329.065338 
	C185.520645,329.067078 186.117386,329.068817 186.714111,329.070557 
	C186.573853,331.757568 186.373093,334.443115 186.309494,337.131958 
	C186.238739,340.122803 186.292953,343.116608 186.292725,346.553741 
z"/>
<path fill="#C3CFDB" opacity="1.000000" stroke="none" 
	d="
M299.947327,343.651886 
	C299.947357,346.042053 299.947357,347.999847 299.947357,348.597443 
	C296.565582,349.210205 293.759857,349.900177 290.916199,350.139099 
	C289.866516,350.227264 288.727570,349.252960 287.590851,348.397247 
	C289.520844,349.569733 291.450806,350.742188 293.184967,351.795715 
	C299.173248,347.111938 297.674164,340.761658 298.056152,334.972839 
	C298.686523,335.000793 299.316925,335.028748 299.947296,335.056702 
	C299.947296,337.777618 299.947296,340.498566 299.947327,343.651886 
z"/>
<path fill="#C3CFDB" opacity="1.000000" stroke="none" 
	d="
M220.016907,336.036316 
	C217.415344,337.066650 213.942261,337.378754 212.384354,339.269165 
	C208.531509,343.944275 212.236862,349.361633 219.612747,349.927856 
	C219.998245,350.001801 220.041122,349.980988 220.041122,349.980988 
	C217.549591,349.967010 213.954758,350.962616 212.812302,349.714111 
	C210.855972,347.576233 209.255035,343.830750 209.719009,341.142487 
	C210.134048,338.737579 213.358200,336.607941 215.716492,334.861176 
	C216.546631,334.246338 218.484161,335.126587 219.956924,335.660889 
	C219.997787,335.997589 220.016907,336.036316 220.016907,336.036316 
z"/>
<path fill="#C3CFDB" opacity="1.000000" stroke="none" 
	d="
M306.716736,349.244568 
	C310.328156,350.088318 313.506622,350.210510 315.709656,346.816772 
	C318.764496,342.110687 315.711334,338.848694 312.914581,335.197235 
	C318.389893,337.385010 320.327179,342.429779 317.723541,347.233398 
	C315.371582,351.572693 311.295197,352.413666 306.716736,349.244568 
z"/>
<path fill="#C3CFDB" opacity="1.000000" stroke="none" 
	d="
M305.090210,336.591614 
	C305.641479,340.773102 303.011169,344.971588 306.956238,348.642242 
	C305.989136,349.641663 304.902740,350.264496 303.471619,351.084991 
	C303.471619,343.574280 303.471619,336.493103 303.471619,329.411957 
	C303.819122,329.377930 304.166595,329.343903 304.514099,329.309906 
	C304.650116,331.602112 304.786102,333.894318 305.090210,336.591614 
z"/>
<path fill="#C3CFDB" opacity="1.000000" stroke="none" 
	d="
M249.004120,341.721252 
	C253.210800,341.721252 257.417480,341.721252 261.624146,341.721252 
	C261.639984,342.252777 261.655792,342.784271 261.671631,343.315796 
	C257.608521,343.315796 253.545425,343.315796 249.395355,343.315796 
	C248.884399,345.314880 248.542099,346.654114 248.468903,346.940521 
	C248.139648,346.317841 247.275574,344.683716 246.586166,342.534882 
	C247.508591,341.920532 248.256363,341.820892 249.004120,341.721252 
z"/>
<path fill="#C3CFDB" opacity="1.000000" stroke="none" 
	d="
M243.213409,335.080444 
	C243.608246,340.279266 243.608246,345.523712 243.608246,350.768158 
	C242.062775,345.629822 241.599167,340.424744 243.213409,335.080444 
z"/>
<path fill="#023566" opacity="1.000000" stroke="none" 
	d="
M220.017120,336.007202 
	C221.626785,337.052460 223.217117,338.088165 224.807434,339.123871 
	C224.309143,339.677094 223.810852,340.230316 223.312561,340.783569 
	C222.268600,339.420349 221.224655,338.057098 220.098816,336.365112 
	C220.016907,336.036316 219.997787,335.997589 220.017120,336.007202 
z"/>
<path fill="#023566" opacity="1.000000" stroke="none" 
	d="
M257.137329,336.682617 
	C255.485260,336.421722 254.092773,336.158600 252.563675,335.869629 
	C255.084503,333.674805 256.002380,333.739288 258.083405,336.116791 
	C258.114471,336.152283 257.956818,336.406891 257.840546,336.502228 
	C257.722961,336.598541 257.547211,336.623871 257.137329,336.682617 
z"/>
<path fill="#023566" opacity="1.000000" stroke="none" 
	d="
M220.008652,349.980377 
	C221.081726,348.488678 222.144409,347.018372 223.207092,345.548096 
	C223.693985,345.965637 224.180893,346.383179 224.667786,346.800720 
	C223.355103,347.842590 222.042419,348.884430 220.385437,349.953613 
	C220.041122,349.980988 219.998245,350.001801 220.008652,349.980377 
z"/>
<path fill="#023566" opacity="1.000000" stroke="none" 
	d="
M248.940002,341.452820 
	C248.256363,341.820892 247.508591,341.920532 246.442551,342.233673 
	C246.471115,341.446655 246.817963,340.446106 247.164810,339.445587 
	C247.735184,340.025177 248.305542,340.604767 248.940002,341.452820 
z"/>
<path fill="#023566" opacity="1.000000" stroke="none" 
	d="
M249.910736,336.640015 
	C250.191162,336.472961 250.425217,336.446075 250.659256,336.419189 
	C250.580078,336.679626 250.500900,336.940094 250.421722,337.200531 
	C250.235916,337.060394 250.050125,336.920258 249.910736,336.640015 
z"/>
<path fill="#C3CFDB" opacity="1.000000" stroke="none" 
	d="
M252.145538,349.975708 
	C252.368378,350.114471 252.602356,350.066254 252.836334,350.018005 
	C252.609787,349.941559 252.383240,349.865112 252.145538,349.975708 
z"/>
<path fill="#013466" opacity="1.000000" stroke="none" 
	d="
M281.832275,228.224701 
	C293.243011,246.360611 295.257904,265.760559 291.833862,286.061432 
	C288.557404,305.487183 275.758453,315.139526 255.316772,312.735321 
	C232.833542,310.090973 213.419800,301.095978 199.441360,282.567230 
	C191.335632,271.822906 183.072922,261.128662 175.892105,249.772430 
	C167.131516,235.917816 167.816986,232.801712 180.150055,222.456528 
	C197.523483,207.883408 216.091919,195.046387 236.866104,185.666626 
	C238.224991,185.053040 239.606049,184.482178 241.001434,183.956848 
	C248.723083,181.049820 249.087570,180.798706 253.722733,187.297745 
	C263.260071,200.670197 272.370026,214.347427 281.832275,228.224701 
M265.810333,263.172821 
	C251.175781,266.105286 242.783310,273.846405 240.490372,286.421906 
	C239.987778,289.178284 239.939758,291.346069 243.545654,291.868439 
	C258.490173,294.033417 273.109253,282.660461 274.421417,267.474945 
	C274.535919,266.149872 272.913940,264.138580 271.570862,263.378937 
	C270.300629,262.660522 268.335327,263.171173 265.810333,263.172821 
M247.210434,238.631714 
	C257.092133,235.472672 262.528168,228.046844 262.235443,218.517822 
	C262.132080,215.152969 260.690979,214.223801 257.565582,214.580643 
	C248.690247,215.593933 241.077347,223.574280 240.165558,232.997314 
	C239.626831,238.564896 240.810486,239.660126 247.210434,238.631714 
M200.134521,261.669373 
	C212.617249,265.491150 221.187195,262.585510 226.571411,252.962448 
	C228.293900,249.883911 227.761948,248.211060 224.505737,246.886765 
	C215.426315,243.194153 202.923660,247.936295 199.181503,256.833771 
	C198.673920,258.040588 199.380920,259.758240 200.134521,261.669373 
z"/>
<path fill="#023566" opacity="1.000000" stroke="none" 
	d="
M321.894409,238.724487 
	C317.956482,251.995316 313.020966,264.271210 302.617401,273.481934 
	C301.468750,274.498840 300.186035,275.364319 297.814575,277.182373 
	C298.335297,273.175262 298.797546,270.678894 298.963776,268.162933 
	C299.872009,254.415634 295.343079,242.038315 289.178314,230.105347 
	C279.666107,211.692780 267.471161,195.108307 254.431274,179.090088 
	C252.235504,176.392761 249.793930,175.556381 246.544220,176.621826 
	C241.420639,178.301651 236.276489,179.918732 229.435333,182.108261 
	C232.280655,175.523682 234.066040,169.627945 237.225159,164.594376 
	C240.180893,159.884857 245.924881,160.790543 250.572342,161.390671 
	C265.894562,163.369293 281.276367,165.227112 296.398132,168.298737 
	C306.583099,170.367569 316.390228,174.338943 326.320587,177.598755 
	C330.465698,178.959457 332.144897,181.584457 331.238739,186.341003 
	C327.944946,203.630905 325.033508,220.993668 321.894409,238.724487 
M297.908051,222.970108 
	C304.923157,223.615326 310.498901,220.761154 315.298676,215.908737 
	C317.284760,213.900864 317.069000,212.346863 314.920868,210.541580 
	C307.249115,204.094330 293.726959,205.289719 287.325806,213.014893 
	C285.438385,215.292679 285.279144,217.255692 288.051331,218.701141 
	C290.984192,220.230331 294.058136,221.488968 297.908051,222.970108 
z"/>
<path fill="#A5F65C" opacity="1.000000" stroke="none" 
	d="
M266.243042,263.157043 
	C268.335327,263.171173 270.300629,262.660522 271.570862,263.378937 
	C272.913940,264.138580 274.535919,266.149872 274.421417,267.474945 
	C273.109253,282.660461 258.490173,294.033417 243.545654,291.868439 
	C239.939758,291.346069 239.987778,289.178284 240.490372,286.421906 
	C242.783310,273.846405 251.175781,266.105286 266.243042,263.157043 
M258.422913,270.713867 
	C251.861725,273.759247 248.026855,278.924713 246.072083,285.882080 
	C257.806427,287.358673 267.728180,279.374939 268.251434,267.972992 
	C265.094177,268.781830 262.089447,269.551575 258.422913,270.713867 
z"/>
<path fill="#A5F65C" opacity="1.000000" stroke="none" 
	d="
M246.846344,238.736908 
	C240.810486,239.660126 239.626831,238.564896 240.165558,232.997314 
	C241.077347,223.574280 248.690247,215.593933 257.565582,214.580643 
	C260.690979,214.223801 262.132080,215.152969 262.235443,218.517822 
	C262.528168,228.046844 257.092133,235.472672 246.846344,238.736908 
M249.665344,224.227234 
	C248.203522,226.942505 246.741714,229.657776 244.840698,233.188858 
	C253.113297,231.595398 256.719696,227.007538 256.118835,219.979843 
	C254.027710,221.295670 252.105682,222.505096 249.665344,224.227234 
z"/>
<path fill="#A5F65C" opacity="1.000000" stroke="none" 
	d="
M199.830017,261.454376 
	C199.380920,259.758240 198.673920,258.040588 199.181503,256.833771 
	C202.923660,247.936295 215.426315,243.194153 224.505737,246.886765 
	C227.761948,248.211060 228.293900,249.883911 226.571411,252.962448 
	C221.187195,262.585510 212.617249,265.491150 199.830017,261.454376 
M209.724518,252.940063 
	C208.161926,254.286774 206.599335,255.633484 204.684311,257.283936 
	C212.926086,259.390747 217.776779,257.421631 220.883408,250.353394 
	C216.943802,251.180038 213.663025,251.868439 209.724518,252.940063 
z"/>
<path fill="#A5F65C" opacity="1.000000" stroke="none" 
	d="
M297.489258,222.917938 
	C294.058136,221.488968 290.984192,220.230331 288.051331,218.701141 
	C285.279144,217.255692 285.438385,215.292679 287.325806,213.014893 
	C293.726959,205.289719 307.249115,204.094330 314.920868,210.541580 
	C317.069000,212.346863 317.284760,213.900864 315.298676,215.908737 
	C310.498901,220.761154 304.923157,223.615326 297.489258,222.917938 
M304.729614,211.781448 
	C300.348938,211.273804 296.368713,211.952637 292.951019,215.369888 
	C299.979858,219.154282 304.317200,218.604752 309.713409,213.300308 
	C308.185333,212.797577 306.825043,212.350021 304.729614,211.781448 
z"/>
<path fill="#023566" opacity="1.000000" stroke="none" 
	d="
M258.753784,270.517609 
	C262.089447,269.551575 265.094177,268.781830 268.251434,267.972992 
	C267.728180,279.374939 257.806427,287.358673 246.072083,285.882080 
	C248.026855,278.924713 251.861725,273.759247 258.753784,270.517609 
z"/>
<path fill="#023566" opacity="1.000000" stroke="none" 
	d="
M249.924500,223.970886 
	C252.105682,222.505096 254.027710,221.295670 256.118835,219.979843 
	C256.719696,227.007538 253.113297,231.595398 244.840698,233.188858 
	C246.741714,229.657776 248.203522,226.942505 249.924500,223.970886 
z"/>
<path fill="#023566" opacity="1.000000" stroke="none" 
	d="
M210.053375,252.748459 
	C213.663025,251.868439 216.943802,251.180038 220.883408,250.353394 
	C217.776779,257.421631 212.926086,259.390747 204.684311,257.283936 
	C206.599335,255.633484 208.161926,254.286774 210.053375,252.748459 
z"/>
<path fill="#023566" opacity="1.000000" stroke="none" 
	d="
M305.097168,211.841965 
	C306.825043,212.350021 308.185333,212.797577 309.713409,213.300308 
	C304.317200,218.604752 299.979858,219.154282 292.951019,215.369888 
	C296.368713,211.952637 300.348938,211.273804 305.097168,211.841965 
z"/>
</svg>